<?xml version="1.0" encoding="UTF-8" standalone="no"?>
<!-- Uploaded to: SVG Repo, www.svgrepo.com, Generator: SVG Repo Mixer Tools -->

<svg
   height="800px"
   width="800px"
   version="1.1"
   id="Capa_1"
   viewBox="0 0 24.393 24.393"
   xml:space="preserve"
   sodipodi:docname="hibernate.svg"
   inkscape:version="1.4.2 (ebf0e940d0, 2025-05-08)"
   xmlns:inkscape="http://www.inkscape.org/namespaces/inkscape"
   xmlns:sodipodi="http://sodipodi.sourceforge.net/DTD/sodipodi-0.dtd"
   xmlns="http://www.w3.org/2000/svg"
   xmlns:svg="http://www.w3.org/2000/svg"><defs
   id="defs1" /><sodipodi:namedview
   id="namedview1"
   pagecolor="#505050"
   bordercolor="#eeeeee"
   borderopacity="1"
   inkscape:showpageshadow="0"
   inkscape:pageopacity="0"
   inkscape:pagecheckerboard="0"
   inkscape:deskcolor="#505050"
   inkscape:zoom="0.57875"
   inkscape:cx="400"
   inkscape:cy="400"
   inkscape:window-width="1033"
   inkscape:window-height="708"
   inkscape:window-x="0"
   inkscape:window-y="0"
   inkscape:window-maximized="1"
   inkscape:current-layer="Capa_1" />
<g
   id="g1"
   transform="matrix(0.91144709,0,0,0.91144709,1.0536933,0.89563927)">
	<path
   style="fill:#ffffff"
   d="M 12.196,0 C 5.46,0 0,5.46 0,12.196 c 0,6.736 5.46,12.197 12.196,12.197 6.736,0 12.197,-5.461 12.197,-12.197 C 24.393,5.46 18.932,0 12.196,0 Z m 0,21.782 c -5.295,0 -9.586,-4.291 -9.586,-9.586 0,-5.295 4.291,-9.586 9.586,-9.586 5.295,0 9.586,4.291 9.586,9.586 0,5.295 -4.291,9.586 -9.586,9.586 z M 14.1,7.436 v 9.519 c 0,1.051 -0.852,1.904 -1.904,1.904 -1.052,0 -1.904,-0.852 -1.904,-1.904 V 7.436 c 0,-1.051 0.852,-1.904 1.904,-1.904 1.052,0 1.904,0.853 1.904,1.904 z"
   id="path1" />
</g>
</svg>
